<?xml version="1.0" encoding="utf-8"?>
<!-- Generator: Adobe Illustrator 16.0.0, SVG Export Plug-In . SVG Version: 6.00 Build 0)  -->
<!DOCTYPE svg PUBLIC "-//W3C//DTD SVG 1.1//EN" "http://www.w3.org/Graphics/SVG/1.1/DTD/svg11.dtd">
<svg version="1.1" id="Calque_1" xmlns="http://www.w3.org/2000/svg" xmlns:xlink="http://www.w3.org/1999/xlink" x="0px" y="0px"
	 width="392.045px" height="155.778px" viewBox="-1933.497 2165.927 392.045 155.778"
	 enable-background="new -1933.497 2165.927 392.045 155.778" xml:space="preserve">
<g>
	<path d="M-1702.815,2216.022c0,9.849-6.818,15.53-18.561,15.53h-25v-55.303h23.864c11.364,0,18.561,5.303,18.561,15.151
		c0,6.062-3.409,10.228-7.576,11.743C-1706.603,2204.659-1702.815,2209.963-1702.815,2216.022z M-1724.406,2198.22
		c4.167,0,6.439-1.515,6.439-4.925c0-3.408-2.272-4.924-6.439-4.924h-8.333v9.849H-1724.406z M-1732.739,2219.811h9.849
		c4.167,0,6.439-2.273,6.439-5.303c0-3.408-2.272-5.303-6.439-5.303h-9.849V2219.811z"/>
	<path d="M-1682.36,2231.553h-14.015v-58.711h14.015V2231.553z"/>
	<path d="M-1652.436,2231.553v-1.894c-1.515,1.515-5.303,2.651-9.848,2.651c-7.955,0-14.773-4.545-14.773-13.258
		c0-7.955,6.818-12.878,15.53-12.878c3.409,0,7.197,1.136,9.091,2.272v-2.65c0-2.652-1.515-4.925-4.924-4.925
		c-2.651,0-4.167,1.136-4.924,3.03h-13.258c1.137-7.955,7.955-14.015,18.561-14.015c11.363,0,18.182,6.062,18.182,16.666v25.001
		C-1638.8,2231.553-1652.436,2231.553-1652.436,2231.553z M-1652.436,2217.916c-0.757-1.894-3.409-2.65-6.061-2.65
		c-2.651,0-5.682,1.137-5.682,3.787c0,2.652,2.651,3.788,5.682,3.788c2.651,0,4.925-1.136,6.061-2.651V2217.916z"/>
	<path d="M-1613.421,2190.265c10.985,0,17.803,6.439,18.939,15.909h-13.636c-0.379-2.273-2.273-4.167-5.303-4.167
		c-3.788,0-6.439,3.788-6.439,9.47s2.651,9.47,6.439,9.47c3.03,0,4.924-1.894,5.303-4.167h13.636
		c-1.137,9.469-7.955,15.908-18.939,15.908c-12.121,0-20.455-8.712-20.455-21.212
		C-1633.875,2198.977-1625.542,2190.265-1613.421,2190.265z"/>
	<path d="M-1572.512,2216.402l-2.651,3.029v11.743h-14.015v-58.333h14.015v31.061l11.364-12.879h17.045l-15.53,17.046l15.909,23.864
		h-16.288L-1572.512,2216.402z"/>
	<path d="M-1722.133,2251.25c13.636,0,21.97,8.333,23.864,19.318h-14.394c-1.515-4.167-4.545-6.818-9.47-6.818
		c-7.576,0-12.121,6.818-12.121,15.909s4.167,15.909,12.121,15.909c4.924,0,7.955-2.652,9.47-6.818h14.394
		c-1.894,11.363-10.227,19.696-23.864,19.696c-15.53,0-26.515-11.743-26.515-28.788S-1737.663,2251.25-1722.133,2251.25z"/>
	<path d="M-1692.588,2248.599h14.394v21.591c2.273-2.651,6.061-4.545,10.985-4.545c9.091,0,14.394,5.682,14.394,14.771v26.516
		h-14.015v-23.106c0-3.409-1.894-5.682-5.303-5.682c-2.651,0-5.303,1.515-5.682,4.545v24.622h-14.015v-58.713L-1692.588,2248.599
		L-1692.588,2248.599z"/>
	<path d="M-1638.421,2263.371c-4.167,0-7.955-3.03-7.955-7.576c0-4.545,3.788-7.575,7.955-7.575s7.955,3.03,7.955,7.575
		C-1630.466,2260.341-1634.254,2263.371-1638.421,2263.371z M-1631.603,2307.311h-14.015v-40.529h14.015V2307.311z"/>
	<path d="M-1609.633,2321.705h-14.015v-54.924h14.015v3.408c1.894-2.273,5.682-4.167,9.849-4.167
		c11.742,0,18.182,9.47,18.182,21.212c0,11.364-6.439,21.213-18.182,21.213c-4.167,0-7.955-1.895-9.849-4.167V2321.705z
		 M-1609.633,2292.537c1.137,2.273,3.409,3.788,6.061,3.788c4.925,0,7.576-3.788,7.576-9.091s-2.651-9.469-7.576-9.469
		c-2.651,0-5.303,1.514-6.061,3.787V2292.537z"/>
	<path d="M-1564.557,2294.811c0.757,2.273,2.651,3.408,5.303,3.408c2.272,0,4.167-0.757,4.167-2.65c0-1.516-1.137-1.895-3.031-2.652
		l-7.954-1.514c-6.818-1.516-11.364-4.546-11.364-11.743c0-8.712,7.576-13.637,17.424-13.637c10.985,0,17.046,5.303,18.561,13.257
		h-13.258c-0.378-1.893-1.894-3.408-4.924-3.408c-1.894,0-3.788,0.758-3.788,2.651c0,1.137,0.758,1.894,2.651,2.273l7.955,1.894
		c7.576,1.895,11.364,5.682,11.364,12.121c0,8.713-7.955,13.258-17.803,13.258c-10.227,0-17.803-4.545-18.939-13.258H-1564.557z"/>
</g>
<path d="M-1776.3,2239.887c-0.378-0.379-0.378-0.379-0.757-0.758c-1.137-1.137-1.894-2.273-1.137-4.167v-0.379
	c-0.757-0.758,0-1.515,0.379-2.273c0.757-1.136,0.378-1.894-0.757-2.272c-0.379,0-0.757-0.38-0.757-0.758
	c0-1.137-0.379-1.895-0.379-3.031c0-0.379,0-0.757-0.379-1.136c0-0.38-0.378-0.757-0.378-1.137
	c-0.379-1.894-0.757-3.409-1.137-5.303c-0.757-2.651-2.272-5.303-3.03-7.954c-0.379-0.758-0.757-1.137-1.137-1.895
	c-0.378-0.758-0.757-1.515-1.137-1.895c-0.378-0.379-0.378-1.137-1.136-1.894c-0.379-0.379-0.757-0.757-0.757-1.515
	c0-1.137-0.757-1.515-1.137-1.895c0-0.379,0-1.136,0-1.894c0,0-0.379-0.379-0.757-0.757c0,0,0-0.379,0.378-0.379
	c-0.378,0-0.378,0-0.378,0c-0.757-0.38-1.894-0.38-2.272-1.137c-0.379-0.758-1.137-1.137-1.137-1.895
	c-0.379-0.379-0.757-0.379-1.515-0.758c-0.379-0.379-0.757-0.757-0.757-1.136c-0.379-0.38-0.758-0.758-0.758-1.137
	c-0.757-0.757-1.515-1.894-2.272-2.651s-1.515-1.895-2.272-2.273c0-0.757-0.757-1.137-1.516-1.515
	c-0.378-0.379-1.136-0.757-1.515-1.515c-0.378-0.379-0.757-0.379-1.136-0.758s-1.137-0.757-1.137-1.137
	c0-0.757-0.757-0.379-1.137-0.757c-0.378-0.379-0.757-0.757-1.136-1.136c-1.894-0.758-2.651-2.273-4.545-3.031
	c-1.137-0.379-1.894-1.515-3.031-1.895c-1.136-0.379-1.894-1.514-3.409-1.514l-0.378-0.379c-0.379-0.38-0.757-0.758-1.137-1.137
	c-0.378,0-0.757,0-1.136,0c-0.758,0-1.516-0.758-2.273-0.38c-0.378-0.757-1.136-0.757-1.515-0.757
	c-1.515-0.758-3.409-1.516-4.924-1.516h-0.379c-1.515-1.137-3.409-1.137-4.924-1.516c-0.757,0-1.515,0-1.894-0.379
	c-0.757,0-1.136-0.757-1.515-0.757c-1.137,0-2.272-0.378-3.409-0.757c-1.894-0.379-3.788-0.379-5.682-0.379
	c-0.379,0-1.137,0.379-1.516-0.379h-0.378c-2.273,0.379-2.273,0.379-4.167,0c-0.379,0-0.757,0-1.137,0
	c-1.137,0.379-1.137,0.379-2.651,0c-0.757,0-1.137-0.379-1.894,0.379c-0.378,0.379-0.757,0.379-1.136,0.379
	c-0.757,0-1.894,0-2.651,0.379c-0.757,0.378-1.894,0.378-2.651,0.757c-0.379,0.378-1.137,0.378-1.515,0.378
	c-0.758,0-1.516,0.379-2.273,0.379c-0.757,0.379-1.894,0.379-2.651,0.758c-0.757,0-1.515-0.379-2.272,0.758h-0.379
	c-2.272,0.379-4.167,1.515-6.439,1.894c-0.757,0-1.137,0.757-1.894,0.757s-1.894,0.379-2.651,0.758
	c-1.515,0.758-3.03,1.515-4.545,2.273c-1.136,0.379-2.272,1.137-3.03,1.515c-0.379,0.379-1.137,0.757-1.515,1.136
	c-0.757,0.38-1.515,0.758-2.273,1.137c-1.136,1.137-2.272,1.516-3.409,1.516c-0.378,0-0.757,0.379-0.757,0.379
	c-0.378,0.379-0.378,1.137-0.378,1.515c-0.379,0-0.757,0-1.137,0.38c-0.757,0.379-1.137,1.136-1.894,0.757h-0.378
	c-0.379,0.379-0.757,0.379-1.515,0.757c-0.379,0.379-1.137,1.516-1.137,1.516c0,0.379-0.379,1.514-0.379,1.894
	c-1.515,1.515-2.651,3.03-4.167,4.925c-1.515,1.894-3.03,3.787-4.545,5.682c-0.757,0.758-1.136,1.894-1.515,2.65
	c-0.757,1.516-1.515,3.031-2.651,4.168c0,0.379-0.378,0.758-0.757,0.758c-1.136,0-1.515,0.757-1.894,1.893
	c0,0.38-0.378,0.38-0.378,0.758c-0.757,0.758-1.137,1.895-1.515,3.031c-0.379,0.757,0.378,1.894,0.378,2.65
	c-0.378,0.379-1.136,0.379-1.515,0.758c0,0.758,0.757,0.758,0.757,1.137c-0.378,0-0.757,0-1.137,0
	c-0.378,0.379-0.378,0.758-0.378,0.758c-0.379,1.894-0.757,3.408-0.757,5.303c0,1.514-0.757,2.65-0.757,3.787
	c-0.379,1.516-1.137,3.031-0.758,4.545c0,0.379,0,0.758-0.378,0.758c-0.379,1.895-1.137,3.408-1.137,5.303
	c0,0.379-0.378,0.758-0.378,1.515s0.378,0.757,0.378,1.515c0,0.379,0,0.758,0,0.758c-0.378,0.379-0.378,1.137-0.378,1.894
	c0,2.273,0,4.546,0,6.818c0,1.137,0,1.894,0.757,2.651c0.378,0.758,0.757,1.137,1.515,1.137c0.379,0,0.379,0,0.757,0
	c0,0.758,0,1.515,0.379,1.895c-0.379,0.379-0.757,0.757-1.515,1.136c-0.379,1.137,0.378,2.273,0.378,3.409
	c0,0.379,0,0.758,0.379,1.137c0.757,0.757,0.757,1.514,0.757,2.65s0.378,2.273,0.757,3.409c0.378,0.757,0.757,1.137,0.757,1.894
	c0,1.137,0.757,1.895,1.137,3.031c0.378,0.758,0.757,1.137,0.757,1.894c0,1.137,0.378,1.515,0.757,2.272s0.757,1.137,1.137,1.895
	c0,0.379,0.378,0.758,0.378,0.758c1.137,1.515,2.273,3.03,2.651,4.545c0,0,0,0.379,0.379,0.379c0.757,0.379,1.136,1.137,1.894,1.895
	c0.758,1.137,1.516,1.894,2.273,2.65c0.378,0.38,0.757,0.758,1.515,1.137l0,0c0,1.137,0.379,1.895,1.137,3.031h0.378
	c0.379-0.379,1.137,0,1.137,0.379c0.379,0.379,1.137,0.758,1.137,1.137c0.378,0.758,1.136,0.758,1.136,1.137
	c0.757,1.137,1.137,1.894,2.273,2.65c0.378,0.38,0.757,0.758,0.757,1.137c0,0.758,0.757,1.137,1.136,1.895
	c0,0.379,0.758,0.379,1.137,0.758c0.757,0.379,1.515,0.757,1.894,1.894c0,0.379,0.378,0.379,0.378,0.379
	c0.758,0,1.137,0.38,1.516,0.757c0.378,0.38,0.757,0.758,1.136,1.137s1.137,0.758,1.515,0.758c0.758,0,0.758,1.137,1.137,1.515
	c0.757,0.38,1.894,0.757,2.651,1.515s1.515,1.516,2.651,1.516c1.515,0.379,2.651,1.136,4.167,1.894
	c0.757,0.379,1.515,0.379,2.272,0.757h0.379c0.757-0.379,1.137-0.757,1.894-0.379c0.757,0,1.136,0.379,1.515,0.758
	c0,0.379,0,1.137-0.379,1.515c1.516,0.379,2.651-0.38,3.788,0.379h0.379c0.378-0.379,0.757-0.379,1.136-0.379
	c1.137,0.379,2.273,0.379,3.409,0.379h0.379c0.757,0.757,1.894,0.38,3.03,1.137h0.379c1.137,0.379,2.272-0.38,3.788-0.38
	c1.137-0.379,2.651-0.379,3.788,0c1.137,0.38,1.894,0,3.03,0.38c0.758-0.38,1.137,0,1.516,0.379c0.378,0,0.757,0.38,1.136,0.38
	s1.137,0.379,1.516,0.379c0.378,0,0.757,0,1.515,0c0.378,0.379,1.136,0,1.515,0c0.757,0,1.515,0,1.894,0.379
	c0.378,0.379,1.136,0.758,1.515,1.137c0.757,0,1.515,0,2.272,0c0.379-0.758,0.757-1.137,0.757-1.895
	c1.137,0,2.651-0.379,3.788-0.379h0.379c0.378-0.758,1.136-0.379,1.894-0.379c1.137,0,2.651-0.379,3.788-1.137
	c0.379-0.379,0.757-0.379,1.137-0.379c1.894-0.758,3.409-1.137,5.303-1.516c1.516-0.757,3.409-0.757,4.925-1.894
	c0.378-0.379,1.136-0.757,1.515-0.757c1.137-0.379,1.894-0.758,3.03-1.137c1.516-0.758,3.031-1.516,4.545-2.273
	c1.515-0.758,2.651-1.515,4.167-2.273c0.379-0.379,0.757-0.757,1.137-1.137c0.757-0.757,1.894-1.136,3.03-1.514
	c0.379,0,0.757-0.379,1.137-0.379c0.757,0.379,0.757,0,1.137-0.758c0.378-1.137,0.378-2.273,1.515-3.031
	c0-0.757,0.757-0.757,1.136-1.137c0.758-0.757,1.516-1.514,2.651-1.514c0.379,0,0.758-0.379,0.758-0.379
	c1.515-1.516,3.03-3.031,4.167-4.546c0.757-0.757,1.894-1.515,1.894-3.03c0-0.379,0.379-0.379,0.758-0.758
	c0.378-0.379,0.757-1.137,1.136-1.515c0.757-1.137,1.137-2.651,1.894-3.788c0.379-0.379,0.757-0.758,0.757-1.515
	c-0.378,0-0.757,0-1.136,0c1.136-1.136,2.272-1.894,3.409-3.03c0-1.516,0-1.516,1.515-1.895c0.757-0.379,1.515-0.757,2.272-1.137
	c0,0,0.379-0.379,0.379-0.757c-0.757,0-1.137,0-1.894,0c0-0.379,0-0.757,0-0.757c0.378-0.379,0.378-0.758,0.757-0.758
	s0.757-0.758,1.515,0c0,0,0,0,0.379,0c0.378-0.758,0.757-1.137,0.757-1.895c0.378-0.757,0.757-1.137,0.757-1.894
	c0.379-0.757,0.379-1.515,0.379-2.272s1.136-1.516,0.757-2.652c0.757-0.757,0-1.514,0.378-1.894c0.379-0.379,0-1.136,0.379-1.515
	c0.378-0.379,0-1.137,0.378-1.515c0-0.38,0.379-0.757,0.758-1.137c0.378-0.379,0.378-0.379,0.757-0.757
	c-0.379-1.516-1.137-2.652,0-3.789c0.378-0.379,0.378-0.757,0.757-1.514v-0.379c-0.379-0.758-0.379-1.516-0.757-2.273
	c-0.379,0-0.757,0-1.137,0c0-0.379,0.379-0.379,0.379-0.758c0-2.273,0.757-4.167,0.378-6.061c0-0.379,0-0.758,0-1.137
	c0.757-0.379,1.137-0.758,1.515-0.758C-1776.3,2241.401-1776.3,2240.644-1776.3,2239.887z M-1844.481,2259.963
	c1.136-0.38,2.272-0.758,3.409-0.758c1.894-0.379,3.788-0.758,5.682-1.516c0.379-0.757,1.137,0,1.894-0.379
	c0.378-0.379,1.137-0.379,1.515-0.379c0.757-0.379,1.515-0.379,2.272-0.758c0.758,0,1.137-0.379,1.894-0.379h0.379
	c1.136-0.757,2.272-0.757,3.788-1.137c0.758-0.379,1.137-0.379,1.894-0.757c1.137-0.38,2.273-0.757,3.409-1.137
	c0.757,0,1.137-0.379,1.894-0.757c0.757,0,1.894-0.379,2.651-0.758c1.515-0.379,3.03-0.758,4.545-1.137
	c0.378,0.758,0.378,1.516,0.757,1.895c0,0.757,0.378,1.514,0.378,2.273c0,0.379,0,0.379,0.379,0.757
	c0.378,0.757,0.757,1.515,0.757,2.272c0,0.379,0,0.379,0,0.379c0.757,0.38,0.379,1.137,0.379,1.895c0,0.379,0,0.379,0.378,0.758
	c0.379,0.379,0.379,0.758,0.757,1.137c0,0.379,0,0.757-0.757,1.137c-0.757,0.379-1.515,0.379-2.272,1.514c0,0,0,0-0.379,0
	c-1.136,0-1.894,0.758-2.651,1.516c-1.515,1.515-3.788,2.273-5.303,3.787c-1.515,0.379-2.272,1.137-3.788,1.516
	s-2.651,1.137-3.788,1.894c-0.757,0.379-1.515,0.757-2.272,1.137c0,0,0,0.379-0.379,0.379c0.758,0,1.516-0.379,1.894-0.379
	c0.379,0,1.137-0.38,1.894-0.38s1.137,0,1.894-0.379c0.757,0,1.136,0.379,1.894,0c0,0.758,0.378,1.137,0.757,1.516
	c0.378,0.379,0,1.136,0.378,1.514c0.379,0.38,0.379,1.137,0.379,1.516s0,1.137,0.378,1.515c0.758,1.136,1.137,2.651,1.516,3.788
	c0.378,0.757,0.378,1.514,0.757,1.894c-0.757,0.379-1.894,0.757-2.651,0.757c-1.137,0-1.894,0.38-3.031,0.758
	c-0.378,0-0.757,0-1.136,0.379s-0.757,0-1.137,0.379c-1.137,0.38-1.894,0.38-3.03,0.758c-0.379,0.379-1.137,0-1.516,0.379
	c-0.378,0-0.757,0.379-1.515,0.758c-0.378,0-1.136,0-1.515,0.379c-1.137,0.758-2.272,0.379-3.03,1.137
	c-0.758,0.379-1.516,0-1.894,0.379c-0.757,0.379-1.515,0-2.273,0.379c-0.757,0.38-1.515,0.38-2.272,0.38
	c-1.894,0-3.409,0.757-4.924,1.136c-0.757,0.38-1.515,0.38-2.273,0.38c-0.757,0-1.136,0.379-1.894,0.757
	c-1.516,0.38-3.409,0.758-4.925,1.137c-1.894,0.379-3.788,1.137-5.682,1.516c-1.137,0.379-1.894,0.379-3.03,0.379
	c-0.379,0-1.137,0-1.516-0.379c-0.378-0.38-0.378-0.758-0.378-1.137v-0.379c-0.757-0.38-0.379-1.137-0.757-1.895
	c-0.379-0.758-0.379-1.137-0.757-1.895c-0.379-0.757-0.379-1.136-0.379-1.894c-0.379-0.757-0.757-1.136-0.757-1.894
	c0-0.379-0.379-1.137-0.757-1.516c-0.379-1.136-0.379-1.514,0.757-1.893c0.378,0,0.757-0.38,1.137-0.38
	c0.378,0,0.378-0.379,0.378-0.757c0.379-0.38,1.137-0.758,1.515-1.516c0.379-0.379,0.757-0.379,1.137-0.757
	c0.379-0.38,0.757-0.758,1.137-0.758h0.378c0.379-0.757,0.757-0.757,1.515-1.136c0.379,0,0.758-0.38,0.758-0.758
	c-0.379,0-0.379,0.379-0.758,0.379c-0.757,0-1.136,0.379-1.894,0.379s-1.137,0.379-1.894,0.379c-1.137,0.38-2.273,0.758-3.409,0.758
	c-1.515,0.379-3.409,0.758-4.924,1.137c-0.379,0-0.758,0-1.137,0s-0.757,0.379-0.757,0.379c-0.379,0-0.757,0-0.757,0
	c-0.379,0-0.757,0.379-1.137,0.379c-1.515,0.38-3.03,1.137-4.924,1.516c-0.379,0-0.379,0-0.757,0.379
	c-0.757,0.379-1.894,0.758-2.651,0.758c-0.757,0.379-1.515,0.379-2.273,0.757c-0.757,0.38-1.136,0.757-1.894,0.757
	c-0.379,0-1.137,0.758-1.516,1.137c-0.757,0-1.515,0-2.651,0c0-1.137-0.757-1.894-1.136-3.03c0-0.379,0-0.757-0.379-1.136
	c0-0.38,0-0.758-0.378-1.137c-0.379-0.758-0.379-1.137,0.378-1.516c-0.757-1.514,0-2.272,1.137-3.787c0-0.379,0-1.137,0-1.516
	c0.757,0,1.515-0.757,1.894-1.137c0.378-0.379,0.757-0.757,0.757-1.514c0-0.758,1.136-1.137,1.515-1.516s0.757-0.379,1.137-0.379
	h0.378c0.379,0,0.379,0,0.757,0c0-0.379,0-0.379,0-0.379c0-0.379-0.378-0.379,0-0.758c0.379,0,0.379-0.758,0.758-1.137
	c1.136-0.379,2.272-1.137,3.03-1.894c0.379-0.379,1.515-0.757,1.894-1.515c0,0,0.757,0,1.136,0c0-0.379,0-0.758,0.379-1.137
	c1.515-0.758,3.03-1.895,4.545-2.651c0.378,0,0.378-0.379,0.378-0.757c-1.136,0.379-2.272,0.757-3.409,1.514
	c-0.378,0.38-1.136,0-1.515,0.38c-1.894,0-3.788,1.137-5.682,1.515c-1.516,0.379-2.651,1.137-4.167,1.516
	c-0.758,0-1.516,0.379-2.273,0.379s-1.515,0.379-2.272,0.757c-1.137,0.38-2.273,0.757-3.409,1.137
	c-0.757,0.379-1.515,0.379-2.273,1.136c-0.378,0.38-1.136,0.758-1.894,0.758c-1.137,0.379-2.273,0.758-3.788,1.516
	c-0.757,0.379-1.515,0.379-2.272,0.757c-1.137,0-1.894,0.757-3.031,0.757c-0.378,0-0.378,0.38-0.757,0.38c-0.378,0-0.757,0-0.757,0
	c0-0.38-0.379-0.757-0.379-1.137c-0.757-1.515-1.515-3.409-1.894-5.303c0-0.379,0-0.379-0.379-0.757
	c-0.378-0.379-0.378-0.758-0.378-0.758c0-0.379,0-1.137,0-1.515v-0.38c-0.758-1.137-0.758-1.137-0.758-2.272
	c0.379,0,0.758,0,0.758,0c0.378,0.379,0.757,0.379,1.136,0c0.379-0.38,0.379-0.38,1.137,0.379c0.378,0.757,1.136,0.38,1.894,0.38
	c-0.379-0.758-0.379-1.137-0.758-1.516c0.379-0.379,1.137-0.379,1.894-0.758c0.757,0,1.137,0,1.515-0.757
	c0.379-0.379,0.758-0.757,1.516-0.757c0.757,0,0.378-0.379,0.757-0.758c0.757,0,1.515-0.379,2.272-0.379h0.379
	c0.378-1.137,1.136-1.137,1.894-1.516c0.757,0,1.136-0.379,1.515-1.136c0.757,0,1.136,0,1.515-0.758
	c0.379-0.757,1.137-0.379,1.515-0.757c0.379,0,0.757,0,0.757,0l0.379-0.379c0.757-0.38,1.137-1.137,1.894-0.758
	c0.378-0.379,0.757-0.379,1.136-0.758s1.137-0.758,1.516-0.758c0.378-0.379,1.136-0.757,1.515-0.757
	c0.757-0.379,1.136-0.379,1.515-1.136c0.379-0.38,0.757,0,0.757-0.38c0.757-0.379,1.894-1.137,2.651-1.515
	c0.757-0.379,1.137-0.379,1.894-0.758s1.137-0.757,1.894-0.757c0.378-0.758,1.136-0.758,1.515-1.137
	c1.515-1.137,3.03-1.894,4.924-2.651c1.515-0.758,3.031-1.515,4.545-2.651c0.757-0.379,1.894-1.137,2.651-1.515
	c0.378-0.379,0.757-0.379,1.136-1.137c-0.378,0-0.378,0.379-0.757,0.379c-1.515,0.379-2.651,1.137-4.167,1.516
	c-0.378,0.379-1.137,0.379-1.515,0.757c-0.757,0.38-1.515,0.38-2.272,0.757c-0.758,0.38-1.516,0.758-2.273,0.758
	c-1.136,0.379-1.894,1.137-2.651,0.758l0,0c-1.515,1.137-3.409,1.515-4.924,2.273c-0.757,0.379-1.515,0.379-2.272,0.757
	c-0.379,0.379-1.137,0.379-1.516,0.757c-0.378,0-1.136,0.38-1.515,0.758c-0.378,0.379-1.136,0.758-1.515,0.758
	c-0.757,0-1.137,0.379-1.894,0.379s-1.136,0-1.894,0.379c-0.378,0.379-1.136,0.379-1.894,0.758c-0.757,0-1.137,0.758-1.894,0.758
	c-1.137,0.379-2.272,1.136-3.409,1.514c-1.137,0.379-2.273,0.758-3.409,1.516c-0.379,0-0.757,0.379-1.137,0.379
	c-0.757,0-1.136,0-1.136-0.758s-0.758-1.137-0.758-1.894v-0.38c0-1.136-0.757-1.894-1.136-2.65l-0.379-0.379
	c0.379-0.758-0.757-1.516-0.757-2.273c-0.757-0.379-0.379-1.516-1.137-1.895c-0.378,0-0.378-0.757-0.378-0.757
	c0-0.38,0-0.758,0.378-0.758c0,0,0.379,0,0.379-0.379c0.379-0.38,0.757-0.38,1.137-0.757c0.378-0.38,0.757-1.137,1.515-0.758
	c0,0,0,0,0.378,0c0.758-1.516,2.273-1.895,3.409-2.651c1.894-1.137,3.788-2.273,5.682-3.409c1.136-0.757,1.894-1.515,3.03-1.894
	c0.757-0.38,0.757-0.757,1.515-1.137c1.137-0.757,2.273-1.515,3.409-2.272c0.379-0.38,0.758-0.758,1.137-0.758
	c0.757-0.379,1.137-1.137,1.894-0.758c0,0,0.378,0,0.378-0.379c0.379-0.379,0.758-0.758,1.137-1.137
	c0.757,0.379,0.757-0.379,1.515-0.758c0.379,0,0.757-0.757,1.516-1.136c0,0,0.378-0.38,0.378,0c0.379,0,0.757-0.38,0.757-0.38
	c0.379-0.379,1.137-1.136,1.894-1.514c1.515-0.758,2.651-1.895,4.167-2.652c0.379-0.379,0.757-0.757,1.137-0.379
	c0,0,0-0.379,0.378-0.379c-1.515-0.379-2.272,0.379-3.409,0.758c-0.757,0-1.515,0.379-2.272,0.379h-0.379
	c-0.757,0.758-1.515,0.379-2.272,0.758s-1.515,0.379-2.272,0.757c-0.379,0-0.757,0-0.757,0c-0.379,0-0.758-0.38-0.758-0.757
	c-0.378-0.758-0.378-1.137-0.757-1.895c-0.378-0.379,0-1.137-0.378-1.515v-0.38c-0.757-0.757-0.757-1.894-1.137-2.65
	c-0.378-0.758-0.378-1.895-0.757-2.652c-0.379-0.757-0.757-1.893-0.379-2.65c0.379,0,1.137,0,1.516,0.379c0,0,0.378,0,0.757,0
	c0.378-0.379,0.757-0.379,1.515-0.758c0.379,0,0.757-0.379,1.137-0.379c0.378,0,0.757,0,0.757-0.379
	c0.757-0.379,1.515-0.379,2.272-0.758s1.894-0.379,2.651-0.758s1.894-0.379,2.651-0.757c0.757,0,1.894-0.379,2.651-0.757
	c0.757,0,1.515-0.758,2.272-1.137c1.137-0.379,2.273-0.758,3.409-0.758c0.379,0,1.137,0,1.515-0.379
	c0.758,0,1.516-0.379,1.894-0.379c0.757-0.379,1.516-0.379,1.894-0.379c0.379,0,0.757-0.38,1.137-0.38c0.757,0,1.136,0,1.515-0.757
	c0.379,0.757,1.137-0.379,1.515,0c0.757-0.758,1.894-0.758,2.651-1.137c1.137-0.379,1.894-0.758,3.031-0.758
	c1.515-0.379,2.651-0.758,4.167-0.758c0.378-0.379,1.136-0.379,1.894-0.757c0.379,0,0.758,0,1.137-0.379
	c0.379,0,0.757-0.38,1.137-0.38c0.378,0,0.757,0,1.136,0s0.379-0.379,0.758-0.379c0,0.379,0.378,0.758,0.378,0.758
	c0.379,0.379,0.379,0.379,0.379,0.758c0,1.137,0.378,2.272,0.757,3.029c0.378,0.758,0.378,1.516,0.757,2.273
	s0.379,1.516,0.379,2.652c0,0.379,0.378,0.757,0.757,1.136c0.378,0.757,0.378,1.515-0.379,2.272
	c-0.378,0.38-1.137,0.758-1.515,1.137c-0.379,0.38-1.137,1.137-1.515,1.516c-0.379,0.379-1.137,0.758-1.516,1.137
	c-0.378,0.379-0.757,0.757-1.515,0.757c-0.378,0-0.757,1.137-1.515,1.137c-1.137,0.379-1.894,1.136-3.03,1.894
	c-1.894,1.137-4.167,2.273-6.061,3.409c-0.758,0.757-1.894,1.515-2.273,2.651c1.137-0.758,2.651-0.758,3.788-1.137
	c1.136-0.379,2.272-0.758,3.409-1.137s2.272-0.758,3.409-0.758c1.137-0.379,2.272-0.757,3.409-0.757
	c1.137-0.379,2.272-0.757,3.409-1.137c0.378,0,0.757-0.379,1.137-0.379h0.378c0.757-0.757,1.515-0.38,2.272-0.757
	c1.137-0.38,2.273-0.758,3.031-1.137c0.378,0,0.378,0,0.757,0s0.379,0,0.757,0c1.137-0.758,3.031-0.758,4.545-1.516
	c1.137-0.379,2.651-0.757,3.788-1.137c0.758-0.379,1.516-0.379,2.273-0.757c0.757-0.379,1.515-0.379,2.272-0.757
	c1.137-0.38,1.894-0.758,3.031-1.137c1.136-0.379,2.651-0.758,3.788-1.137c0.757-0.379,1.894-0.379,2.651-0.758
	c0.379,0,0.379,0,0.757,0c0,0.379,0,0.758,0,0.758c0,0.379,0,0.758,0.379,1.137c0.378,0.379,0.378,0.757,0.378,1.137
	c0,0.379,0,0.757,0.379,1.137v0.379c0.757,0.757,0.379,1.894,0.757,2.65c0.379,0.379,0,1.137,0.379,1.516
	c0,0.379,0.378,0.757,0,1.137c0,0,0,0,0,0.379c0.757,0.379,0.378,1.137,0.757,1.515c-0.379,0.379-0.757,0.757-1.137,0.757
	c-0.378,0-0.757,0.379-1.137,0.758c-0.378,0.379-0.757,0.379-1.136,0.758c-0.757,0.757-1.515,1.137-2.273,1.514
	c-0.378,0.38-1.136,0.38-1.515,0.758c-0.378,0.379-1.136,0.758-1.894,0.758c-1.136,0.379-2.272,1.137-3.409,1.894
	c-0.378,0.38-1.136,0.38-1.515,0.758c-0.378,0.379-1.515,0.379-1.515,1.136h-0.379c-0.757,0.38-1.515,0.758-1.894,1.137
	c-0.379,0.379-0.757,0.758-1.137,0.758c-1.137,0.379-1.515,1.515-2.651,1.137c-0.378,0.758-1.137,0.758-1.515,1.137
	c-0.379,0.379-1.137,0.757-1.894,0.757c-0.378,0-0.378,0.38-0.757,0.38c-0.379,0.379-1.137,1.137-1.515,1.137
	c-0.757,0-0.757,1.136-1.515,0.757h-0.379c-0.379,1.136-1.137,1.136-1.894,1.894c0.379,0,0.379,0,0.379,0
	c0.757,0,1.515-0.379,2.272-0.379c1.515-0.379,2.651-1.137,4.167-1.515c1.515-0.38,3.031-1.137,4.167-1.515
	c1.894-0.758,3.788-1.516,5.682-1.895c1.515-0.379,2.651-1.137,3.788-1.137c1.137-0.379,2.651-1.137,3.788-1.137
	c0.378-0.757,1.515-0.379,2.272-1.136c0.757-0.38,1.515-0.38,2.273-0.757c0.757-0.38,1.894-0.758,2.651-0.758
	c0,0.758,0.378,1.515,0.378,2.273c0,0.757,0.379,1.136,0.379,1.894v0.379c0.757,0.38,0.378,1.515,0.757,1.894
	c0,1.137,0.757,2.273,0.757,3.409l0,0c0.378,0.379,0.757,0.757,0.757,1.137c0,0.379,0,0.757,0,1.136
	c0.379,0.38-0.379,0.758-0.379,0.758c-1.136,0-1.894,1.137-3.03,1.137c-0.379,0-0.757,0.379-1.137,0.758
	c-1.515,0.757-3.03,1.894-4.545,2.65c-0.379,0-0.379,0-0.757,0.38h-0.379c0,0.757-0.757,0.757-1.137,1.136
	c-0.378,0.38-1.136,0.38-1.515,0.758c-1.137,0.758-2.272,0.758-3.03,1.895c-0.379,0.379-0.757,0.379-1.137,0.757
	c-1.137,0.757-2.272,1.515-3.409,1.894l-0.379,0.38c-0.378,0-1.136-0.38-1.136,0.379c-0.379,0-0.757,0.38-1.137,0.757
	c-0.378,0.38-1.137,0.38-1.894,0.758c-0.757,0.379-1.894,1.137-2.651,1.516h-0.378c-0.379,0.379-1.137,0.757-1.515,1.136
	c-0.379,0.38-1.137,0.38-1.516,0.757c-0.757,0.38-1.515,0.758-2.272,1.137c-0.757,0.38-1.515,0.758-2.272,1.137
	c-0.379,0.379-0.757,0.379-1.516,0.379c-0.757,0-0.757,0.758-1.515,0.758c-0.378,0-1.136,0.379-1.515,0.758
	s-1.137,0.379-1.894,0.758C-1845.997,2259.963-1845.239,2260.341-1844.481,2259.963z"/>
</svg>
