<svg xmlns="http://www.w3.org/2000/svg" width="392.045" height="155.778" viewBox="-1933.497 2165.927 392.045 155.778"><path d="M-1702.815 2216.022c0 9.849-6.818 15.53-18.561 15.53h-25v-55.303h23.864c11.364 0 18.561 5.303 18.561 15.151 0 6.062-3.409 10.228-7.576 11.743 4.924 1.516 8.712 6.82 8.712 12.879zm-21.591-17.802c4.167 0 6.439-1.515 6.439-4.925 0-3.408-2.272-4.924-6.439-4.924h-8.333v9.849h8.333zm-8.333 21.591h9.849c4.167 0 6.439-2.273 6.439-5.303 0-3.408-2.272-5.303-6.439-5.303h-9.849v10.606zM-1682.36 2231.553h-14.015v-58.711h14.015v58.711zM-1652.436 2231.553v-1.894c-1.515 1.515-5.303 2.651-9.848 2.651-7.955 0-14.773-4.545-14.773-13.258 0-7.955 6.818-12.878 15.53-12.878 3.409 0 7.197 1.136 9.091 2.272v-2.65c0-2.652-1.515-4.925-4.924-4.925-2.651 0-4.167 1.136-4.924 3.03h-13.258c1.137-7.955 7.955-14.015 18.561-14.015 11.363 0 18.182 6.062 18.182 16.666v25.001h-13.637zm0-13.637c-.757-1.894-3.409-2.65-6.061-2.65-2.651 0-5.682 1.137-5.682 3.787 0 2.652 2.651 3.788 5.682 3.788 2.651 0 4.925-1.136 6.061-2.651v-2.274zM-1613.421 2190.265c10.985 0 17.803 6.439 18.939 15.909h-13.636c-.379-2.273-2.273-4.167-5.303-4.167-3.788 0-6.439 3.788-6.439 9.47s2.651 9.47 6.439 9.47c3.03 0 4.924-1.894 5.303-4.167h13.636c-1.137 9.469-7.955 15.908-18.939 15.908-12.121 0-20.455-8.712-20.455-21.212.001-12.499 8.334-21.211 20.455-21.211zM-1572.512 2216.402l-2.651 3.029v11.743h-14.015v-58.333h14.015v31.061l11.364-12.879h17.045l-15.53 17.046 15.909 23.864h-16.288l-9.849-15.531zM-1722.133 2251.25c13.636 0 21.97 8.333 23.864 19.318h-14.394c-1.515-4.167-4.545-6.818-9.47-6.818-7.576 0-12.121 6.818-12.121 15.909s4.167 15.909 12.121 15.909c4.924 0 7.955-2.652 9.47-6.818h14.394c-1.894 11.363-10.227 19.696-23.864 19.696-15.53 0-26.515-11.743-26.515-28.788s10.985-28.408 26.515-28.408zM-1692.588 2248.599h14.394v21.591c2.273-2.651 6.061-4.545 10.985-4.545 9.091 0 14.394 5.682 14.394 14.771v26.516h-14.015v-23.106c0-3.409-1.894-5.682-5.303-5.682-2.651 0-5.303 1.515-5.682 4.545v24.622h-14.015v-58.713l-.758.001zM-1638.421 2263.371c-4.167 0-7.955-3.03-7.955-7.576 0-4.545 3.788-7.575 7.955-7.575s7.955 3.03 7.955 7.575c0 4.546-3.788 7.576-7.955 7.576zm6.818 43.94h-14.015v-40.529h14.015v40.529zM-1609.633 2321.705h-14.015v-54.924h14.015v3.408c1.894-2.273 5.682-4.167 9.849-4.167 11.742 0 18.182 9.47 18.182 21.212 0 11.364-6.439 21.213-18.182 21.213-4.167 0-7.955-1.895-9.849-4.167v17.425zm0-29.168c1.137 2.273 3.409 3.788 6.061 3.788 4.925 0 7.576-3.788 7.576-9.091s-2.651-9.469-7.576-9.469c-2.651 0-5.303 1.514-6.061 3.787v10.985zM-1564.557 2294.811c.757 2.273 2.651 3.408 5.303 3.408 2.272 0 4.167-.757 4.167-2.65 0-1.516-1.137-1.895-3.031-2.652l-7.954-1.514c-6.818-1.516-11.364-4.546-11.364-11.743 0-8.712 7.576-13.637 17.424-13.637 10.985 0 17.046 5.303 18.561 13.257h-13.258c-.378-1.893-1.894-3.408-4.924-3.408-1.894 0-3.788.758-3.788 2.651 0 1.137.758 1.894 2.651 2.273l7.955 1.894c7.576 1.895 11.364 5.682 11.364 12.121 0 8.713-7.955 13.258-17.803 13.258-10.227 0-17.803-4.545-18.939-13.258h13.636zM-1776.3 2239.887l-.757-.758c-1.137-1.137-1.894-2.273-1.137-4.167v-.379c-.757-.758 0-1.515.379-2.273.757-1.136.378-1.894-.757-2.272-.379 0-.757-.38-.757-.758 0-1.137-.379-1.895-.379-3.031 0-.379 0-.757-.379-1.136 0-.38-.378-.757-.378-1.137-.379-1.894-.757-3.409-1.137-5.303-.757-2.651-2.272-5.303-3.03-7.954-.379-.758-.757-1.137-1.137-1.895-.378-.758-.757-1.515-1.137-1.895-.378-.379-.378-1.137-1.136-1.894-.379-.379-.757-.757-.757-1.515 0-1.137-.757-1.515-1.137-1.895v-1.894l-.757-.757s0-.379.378-.379h-.378c-.757-.38-1.894-.38-2.272-1.137-.379-.758-1.137-1.137-1.137-1.895-.379-.379-.757-.379-1.515-.758-.379-.379-.757-.757-.757-1.136-.379-.38-.758-.758-.758-1.137-.757-.757-1.515-1.894-2.272-2.651s-1.515-1.895-2.272-2.273c0-.757-.757-1.137-1.516-1.515-.378-.379-1.136-.757-1.515-1.515-.378-.379-.757-.379-1.136-.758s-1.137-.757-1.137-1.137c0-.757-.757-.379-1.137-.757l-1.136-1.136c-1.894-.758-2.651-2.273-4.545-3.031-1.137-.379-1.894-1.515-3.031-1.895-1.136-.379-1.894-1.514-3.409-1.514l-.378-.379-1.137-1.137h-1.136c-.758 0-1.516-.758-2.273-.38-.378-.757-1.136-.757-1.515-.757-1.515-.758-3.409-1.516-4.924-1.516h-.379c-1.515-1.137-3.409-1.137-4.924-1.516-.757 0-1.515 0-1.894-.379-.757 0-1.136-.757-1.515-.757-1.137 0-2.272-.378-3.409-.757-1.894-.379-3.788-.379-5.682-.379-.379 0-1.137.379-1.516-.379h-.378c-2.273.379-2.273.379-4.167 0h-1.137c-1.137.379-1.137.379-2.651 0-.757 0-1.137-.379-1.894.379-.378.379-.757.379-1.136.379-.757 0-1.894 0-2.651.379-.757.378-1.894.378-2.651.757-.379.378-1.137.378-1.515.378-.758 0-1.516.379-2.273.379-.757.379-1.894.379-2.651.758-.757 0-1.515-.379-2.272.758h-.379c-2.272.379-4.167 1.515-6.439 1.894-.757 0-1.137.757-1.894.757s-1.894.379-2.651.758l-4.545 2.273c-1.136.379-2.272 1.137-3.03 1.515-.379.379-1.137.757-1.515 1.136-.757.38-1.515.758-2.273 1.137-1.136 1.137-2.272 1.516-3.409 1.516-.378 0-.757.379-.757.379-.378.379-.378 1.137-.378 1.515-.379 0-.757 0-1.137.38-.757.379-1.137 1.136-1.894.757h-.378c-.379.379-.757.379-1.515.757-.379.379-1.137 1.516-1.137 1.516 0 .379-.379 1.514-.379 1.894-1.515 1.515-2.651 3.03-4.167 4.925l-4.545 5.682c-.757.758-1.136 1.894-1.515 2.65-.757 1.516-1.515 3.031-2.651 4.168 0 .379-.378.758-.757.758-1.136 0-1.515.757-1.894 1.893 0 .38-.378.38-.378.758-.757.758-1.137 1.895-1.515 3.031-.379.757.378 1.894.378 2.65-.378.379-1.136.379-1.515.758 0 .758.757.758.757 1.137h-1.137c-.378.379-.378.758-.378.758-.379 1.894-.757 3.408-.757 5.303 0 1.514-.757 2.65-.757 3.787-.379 1.516-1.137 3.031-.758 4.545 0 .379 0 .758-.378.758-.379 1.895-1.137 3.408-1.137 5.303 0 .379-.378.758-.378 1.515s.378.757.378 1.515v.758c-.378.379-.378 1.137-.378 1.894v6.818c0 1.137 0 1.894.757 2.651.378.758.757 1.137 1.515 1.137h.757c0 .758 0 1.515.379 1.895-.379.379-.757.757-1.515 1.136-.379 1.137.378 2.273.378 3.409 0 .379 0 .758.379 1.137.757.757.757 1.514.757 2.65s.378 2.273.757 3.409c.378.757.757 1.137.757 1.894 0 1.137.757 1.895 1.137 3.031.378.758.757 1.137.757 1.894 0 1.137.378 1.515.757 2.272s.757 1.137 1.137 1.895c0 .379.378.758.378.758 1.137 1.515 2.273 3.03 2.651 4.545 0 0 0 .379.379.379.757.379 1.136 1.137 1.894 1.895.758 1.137 1.516 1.894 2.273 2.65.378.38.757.758 1.515 1.137 0 1.137.379 1.895 1.137 3.031h.378c.379-.379 1.137 0 1.137.379.379.379 1.137.758 1.137 1.137.378.758 1.136.758 1.136 1.137.757 1.137 1.137 1.894 2.273 2.65.378.38.757.758.757 1.137 0 .758.757 1.137 1.136 1.895 0 .379.758.379 1.137.758.757.379 1.515.757 1.894 1.894 0 .379.378.379.378.379.758 0 1.137.38 1.516.757.378.38.757.758 1.136 1.137s1.137.758 1.515.758c.758 0 .758 1.137 1.137 1.515.757.38 1.894.757 2.651 1.515s1.515 1.516 2.651 1.516c1.515.379 2.651 1.136 4.167 1.894.757.379 1.515.379 2.272.757h.379c.757-.379 1.137-.757 1.894-.379.757 0 1.136.379 1.515.758 0 .379 0 1.137-.379 1.515 1.516.379 2.651-.38 3.788.379h.379c.378-.379.757-.379 1.136-.379 1.137.379 2.273.379 3.409.379h.379c.757.757 1.894.38 3.03 1.137h.379c1.137.379 2.272-.38 3.788-.38 1.137-.379 2.651-.379 3.788 0 1.137.38 1.894 0 3.03.38.758-.38 1.137 0 1.516.379.378 0 .757.38 1.136.38s1.137.379 1.516.379h1.515c.378.379 1.136 0 1.515 0 .757 0 1.515 0 1.894.379.378.379 1.136.758 1.515 1.137h2.272c.379-.758.757-1.137.757-1.895 1.137 0 2.651-.379 3.788-.379h.379c.378-.758 1.136-.379 1.894-.379 1.137 0 2.651-.379 3.788-1.137.379-.379.757-.379 1.137-.379 1.894-.758 3.409-1.137 5.303-1.516 1.516-.757 3.409-.757 4.925-1.894.378-.379 1.136-.757 1.515-.757 1.137-.379 1.894-.758 3.03-1.137l4.545-2.273c1.515-.758 2.651-1.515 4.167-2.273l1.137-1.137c.757-.757 1.894-1.136 3.03-1.514.379 0 .757-.379 1.137-.379.757.379.757 0 1.137-.758.378-1.137.378-2.273 1.515-3.031 0-.757.757-.757 1.136-1.137.758-.757 1.516-1.514 2.651-1.514.379 0 .758-.379.758-.379 1.515-1.516 3.03-3.031 4.167-4.546.757-.757 1.894-1.515 1.894-3.03 0-.379.379-.379.758-.758.378-.379.757-1.137 1.136-1.515.757-1.137 1.137-2.651 1.894-3.788.379-.379.757-.758.757-1.515h-1.136c1.136-1.136 2.272-1.894 3.409-3.03 0-1.516 0-1.516 1.515-1.895.757-.379 1.515-.757 2.272-1.137 0 0 .379-.379.379-.757h-1.894v-.757c.378-.379.378-.758.757-.758s.757-.758 1.515 0h.379c.378-.758.757-1.137.757-1.895.378-.757.757-1.137.757-1.894.379-.757.379-1.515.379-2.272s1.136-1.516.757-2.652c.757-.757 0-1.514.378-1.894.379-.379 0-1.136.379-1.515.378-.379 0-1.137.378-1.515 0-.38.379-.757.758-1.137l.757-.757c-.379-1.516-1.137-2.652 0-3.789.378-.379.378-.757.757-1.514v-.379c-.379-.758-.379-1.516-.757-2.273h-1.137c0-.379.379-.379.379-.758 0-2.273.757-4.167.378-6.061v-1.137c.757-.379 1.137-.758 1.515-.758-1.516 1.142-1.516.385-1.516-.372zm-68.181 20.076c1.136-.38 2.272-.758 3.409-.758 1.894-.379 3.788-.758 5.682-1.516.379-.757 1.137 0 1.894-.379.378-.379 1.137-.379 1.515-.379.757-.379 1.515-.379 2.272-.758.758 0 1.137-.379 1.894-.379h.379c1.136-.757 2.272-.757 3.788-1.137.758-.379 1.137-.379 1.894-.757 1.137-.38 2.273-.757 3.409-1.137.757 0 1.137-.379 1.894-.757.757 0 1.894-.379 2.651-.758l4.545-1.137c.378.758.378 1.516.757 1.895 0 .757.378 1.514.378 2.273 0 .379 0 .379.379.757.378.757.757 1.515.757 2.272v.379c.757.38.379 1.137.379 1.895 0 .379 0 .379.378.758.379.379.379.758.757 1.137 0 .379 0 .757-.757 1.137-.757.379-1.515.379-2.272 1.514h-.379c-1.136 0-1.894.758-2.651 1.516-1.515 1.515-3.788 2.273-5.303 3.787-1.515.379-2.272 1.137-3.788 1.516s-2.651 1.137-3.788 1.894c-.757.379-1.515.757-2.272 1.137 0 0 0 .379-.379.379.758 0 1.516-.379 1.894-.379.379 0 1.137-.38 1.894-.38s1.137 0 1.894-.379c.757 0 1.136.379 1.894 0 0 .758.378 1.137.757 1.516.378.379 0 1.136.378 1.514.379.38.379 1.137.379 1.516s0 1.137.378 1.515c.758 1.136 1.137 2.651 1.516 3.788.378.757.378 1.514.757 1.894-.757.379-1.894.757-2.651.757-1.137 0-1.894.38-3.031.758-.378 0-.757 0-1.136.379s-.757 0-1.137.379c-1.137.38-1.894.38-3.03.758-.379.379-1.137 0-1.516.379-.378 0-.757.379-1.515.758-.378 0-1.136 0-1.515.379-1.137.758-2.272.379-3.03 1.137-.758.379-1.516 0-1.894.379-.757.379-1.515 0-2.273.379-.757.38-1.515.38-2.272.38-1.894 0-3.409.757-4.924 1.136-.757.38-1.515.38-2.273.38-.757 0-1.136.379-1.894.757-1.516.38-3.409.758-4.925 1.137-1.894.379-3.788 1.137-5.682 1.516-1.137.379-1.894.379-3.03.379-.379 0-1.137 0-1.516-.379-.378-.38-.378-.758-.378-1.137v-.379c-.757-.38-.379-1.137-.757-1.895-.379-.758-.379-1.137-.757-1.895-.379-.757-.379-1.136-.379-1.894-.379-.757-.757-1.136-.757-1.894 0-.379-.379-1.137-.757-1.516-.379-1.136-.379-1.514.757-1.893.378 0 .757-.38 1.137-.38.378 0 .378-.379.378-.757.379-.38 1.137-.758 1.515-1.516.379-.379.757-.379 1.137-.757.379-.38.757-.758 1.137-.758h.378c.379-.757.757-.757 1.515-1.136.379 0 .758-.38.758-.758-.379 0-.379.379-.758.379-.757 0-1.136.379-1.894.379s-1.137.379-1.894.379c-1.137.38-2.273.758-3.409.758-1.515.379-3.409.758-4.924 1.137h-1.137c-.379 0-.757.379-.757.379h-.757c-.379 0-.757.379-1.137.379-1.515.38-3.03 1.137-4.924 1.516-.379 0-.379 0-.757.379-.757.379-1.894.758-2.651.758-.757.379-1.515.379-2.273.757-.757.38-1.136.757-1.894.757-.379 0-1.137.758-1.516 1.137h-2.651c0-1.137-.757-1.894-1.136-3.03 0-.379 0-.757-.379-1.136 0-.38 0-.758-.378-1.137-.379-.758-.379-1.137.378-1.516-.757-1.514 0-2.272 1.137-3.787v-1.516c.757 0 1.515-.757 1.894-1.137.378-.379.757-.757.757-1.514 0-.758 1.136-1.137 1.515-1.516s.757-.379 1.137-.379h1.135v-.379c0-.379-.378-.379 0-.758.379 0 .379-.758.758-1.137 1.136-.379 2.272-1.137 3.03-1.894.379-.379 1.515-.757 1.894-1.515h1.136c0-.379 0-.758.379-1.137 1.515-.758 3.03-1.895 4.545-2.651.378 0 .378-.379.378-.757-1.136.379-2.272.757-3.409 1.514-.378.38-1.136 0-1.515.38-1.894 0-3.788 1.137-5.682 1.515-1.516.379-2.651 1.137-4.167 1.516-.758 0-1.516.379-2.273.379s-1.515.379-2.272.757c-1.137.38-2.273.757-3.409 1.137-.757.379-1.515.379-2.273 1.136-.378.38-1.136.758-1.894.758-1.137.379-2.273.758-3.788 1.516-.757.379-1.515.379-2.272.757-1.137 0-1.894.757-3.031.757-.378 0-.378.38-.757.38h-.757c0-.38-.379-.757-.379-1.137-.757-1.515-1.515-3.409-1.894-5.303 0-.379 0-.379-.379-.757-.378-.379-.378-.758-.378-.758v-1.895c-.758-1.137-.758-1.137-.758-2.272h.758c.378.379.757.379 1.136 0 .379-.38.379-.38 1.137.379.378.757 1.136.38 1.894.38-.379-.758-.379-1.137-.758-1.516.379-.379 1.137-.379 1.894-.758.757 0 1.137 0 1.515-.757.379-.379.758-.757 1.516-.757.757 0 .378-.379.757-.758.757 0 1.515-.379 2.272-.379h.379c.378-1.137 1.136-1.137 1.894-1.516.757 0 1.136-.379 1.515-1.136.757 0 1.136 0 1.515-.758.379-.757 1.137-.379 1.515-.757h.757l.379-.379c.757-.38 1.137-1.137 1.894-.758.378-.379.757-.379 1.136-.758s1.137-.758 1.516-.758c.378-.379 1.136-.757 1.515-.757.757-.379 1.136-.379 1.515-1.136.379-.38.757 0 .757-.38.757-.379 1.894-1.137 2.651-1.515.757-.379 1.137-.379 1.894-.758s1.137-.757 1.894-.757c.378-.758 1.136-.758 1.515-1.137 1.515-1.137 3.03-1.894 4.924-2.651 1.515-.758 3.031-1.515 4.545-2.651.757-.379 1.894-1.137 2.651-1.515.378-.379.757-.379 1.136-1.137-.378 0-.378.379-.757.379-1.515.379-2.651 1.137-4.167 1.516-.378.379-1.137.379-1.515.757-.757.38-1.515.38-2.272.757-.758.38-1.516.758-2.273.758-1.136.379-1.894 1.137-2.651.758-1.515 1.137-3.409 1.515-4.924 2.273-.757.379-1.515.379-2.272.757-.379.379-1.137.379-1.516.757-.378 0-1.136.38-1.515.758-.378.379-1.136.758-1.515.758-.757 0-1.137.379-1.894.379s-1.136 0-1.894.379c-.378.379-1.136.379-1.894.758-.757 0-1.137.758-1.894.758-1.137.379-2.272 1.136-3.409 1.514-1.137.379-2.273.758-3.409 1.516-.379 0-.757.379-1.137.379-.757 0-1.136 0-1.136-.758s-.758-1.137-.758-1.894v-.38c0-1.136-.757-1.894-1.136-2.65l-.379-.379c.379-.758-.757-1.516-.757-2.273-.757-.379-.379-1.516-1.137-1.895-.378 0-.378-.757-.378-.757 0-.38 0-.758.378-.758 0 0 .379 0 .379-.379.379-.38.757-.38 1.137-.757.378-.38.757-1.137 1.515-.758h.378c.758-1.516 2.273-1.895 3.409-2.651l5.682-3.409c1.136-.757 1.894-1.515 3.03-1.894.757-.38.757-.757 1.515-1.137l3.409-2.272c.379-.38.758-.758 1.137-.758.757-.379 1.137-1.137 1.894-.758 0 0 .378 0 .378-.379l1.137-1.137c.757.379.757-.379 1.515-.758.379 0 .757-.757 1.516-1.136 0 0 .378-.38.378 0 .379 0 .757-.38.757-.38.379-.379 1.137-1.136 1.894-1.514 1.515-.758 2.651-1.895 4.167-2.652.379-.379.757-.757 1.137-.379 0 0 0-.379.378-.379-1.515-.379-2.272.379-3.409.758-.757 0-1.515.379-2.272.379h-.379c-.757.758-1.515.379-2.272.758s-1.515.379-2.272.757h-.757c-.379 0-.758-.38-.758-.757-.378-.758-.378-1.137-.757-1.895-.378-.379 0-1.137-.378-1.515v-.38c-.757-.757-.757-1.894-1.137-2.65-.378-.758-.378-1.895-.757-2.652-.379-.757-.757-1.893-.379-2.65.379 0 1.137 0 1.516.379h.757c.378-.379.757-.379 1.515-.758.379 0 .757-.379 1.137-.379.378 0 .757 0 .757-.379.757-.379 1.515-.379 2.272-.758s1.894-.379 2.651-.758 1.894-.379 2.651-.757c.757 0 1.894-.379 2.651-.757.757 0 1.515-.758 2.272-1.137 1.137-.379 2.273-.758 3.409-.758.379 0 1.137 0 1.515-.379.758 0 1.516-.379 1.894-.379.757-.379 1.516-.379 1.894-.379.379 0 .757-.38 1.137-.38.757 0 1.136 0 1.515-.757.379.757 1.137-.379 1.515 0 .757-.758 1.894-.758 2.651-1.137 1.137-.379 1.894-.758 3.031-.758 1.515-.379 2.651-.758 4.167-.758.378-.379 1.136-.379 1.894-.757.379 0 .758 0 1.137-.379.379 0 .757-.38 1.137-.38h1.136c.379 0 .379-.379.758-.379 0 .379.378.758.378.758.379.379.379.379.379.758 0 1.137.378 2.272.757 3.029.378.758.378 1.516.757 2.273s.379 1.516.379 2.652c0 .379.378.757.757 1.136.378.757.378 1.515-.379 2.272-.378.38-1.137.758-1.515 1.137l-1.515 1.516c-.379.379-1.137.758-1.516 1.137-.378.379-.757.757-1.515.757-.378 0-.757 1.137-1.515 1.137-1.137.379-1.894 1.136-3.03 1.894-1.894 1.137-4.167 2.273-6.061 3.409-.758.757-1.894 1.515-2.273 2.651 1.137-.758 2.651-.758 3.788-1.137l3.409-1.137c1.137-.379 2.272-.758 3.409-.758 1.137-.379 2.272-.757 3.409-.757l3.409-1.137c.378 0 .757-.379 1.137-.379h.378c.757-.757 1.515-.38 2.272-.757 1.137-.38 2.273-.758 3.031-1.137h1.514c1.137-.758 3.031-.758 4.545-1.516 1.137-.379 2.651-.757 3.788-1.137.758-.379 1.516-.379 2.273-.757.757-.379 1.515-.379 2.272-.757 1.137-.38 1.894-.758 3.031-1.137 1.136-.379 2.651-.758 3.788-1.137.757-.379 1.894-.379 2.651-.758h.757v.758c0 .379 0 .758.379 1.137.378.379.378.757.378 1.137 0 .379 0 .757.379 1.137v.379c.757.757.379 1.894.757 2.65.379.379 0 1.137.379 1.516 0 .379.378.757 0 1.137v.379c.757.379.378 1.137.757 1.515-.379.379-.757.757-1.137.757-.378 0-.757.379-1.137.758-.378.379-.757.379-1.136.758-.757.757-1.515 1.137-2.273 1.514-.378.38-1.136.38-1.515.758-.378.379-1.136.758-1.894.758-1.136.379-2.272 1.137-3.409 1.894-.378.38-1.136.38-1.515.758-.378.379-1.515.379-1.515 1.136h-.379c-.757.38-1.515.758-1.894 1.137s-.757.758-1.137.758c-1.137.379-1.515 1.515-2.651 1.137-.378.758-1.137.758-1.515 1.137-.379.379-1.137.757-1.894.757-.378 0-.378.38-.757.38-.379.379-1.137 1.137-1.515 1.137-.757 0-.757 1.136-1.515.757h-.379c-.379 1.136-1.137 1.136-1.894 1.894h.379c.757 0 1.515-.379 2.272-.379 1.515-.379 2.651-1.137 4.167-1.515 1.515-.38 3.031-1.137 4.167-1.515 1.894-.758 3.788-1.516 5.682-1.895 1.515-.379 2.651-1.137 3.788-1.137 1.137-.379 2.651-1.137 3.788-1.137.378-.757 1.515-.379 2.272-1.136.757-.38 1.515-.38 2.273-.757.757-.38 1.894-.758 2.651-.758 0 .758.378 1.515.378 2.273 0 .757.379 1.136.379 1.894v.379c.757.38.378 1.515.757 1.894 0 1.137.757 2.273.757 3.409.378.379.757.757.757 1.137v1.136c.379.38-.379.758-.379.758-1.136 0-1.894 1.137-3.03 1.137-.379 0-.757.379-1.137.758-1.515.757-3.03 1.894-4.545 2.65-.379 0-.379 0-.757.38h-.379c0 .757-.757.757-1.137 1.136-.378.38-1.136.38-1.515.758-1.137.758-2.272.758-3.03 1.895-.379.379-.757.379-1.137.757-1.137.757-2.272 1.515-3.409 1.894l-.379.38c-.378 0-1.136-.38-1.136.379-.379 0-.757.38-1.137.757-.378.38-1.137.38-1.894.758-.757.379-1.894 1.137-2.651 1.516h-.378c-.379.379-1.137.757-1.515 1.136-.379.38-1.137.38-1.516.757-.757.38-1.515.758-2.272 1.137-.757.38-1.515.758-2.272 1.137-.379.379-.757.379-1.516.379-.757 0-.757.758-1.515.758-.378 0-1.136.379-1.515.758s-1.137.379-1.894.758c1.148-.003 1.906.375 2.664-.003z"/></svg>